<?xml version="1.0" standalone="no"?>
<!DOCTYPE svg PUBLIC "-//W3C//DTD SVG 20010904//EN"
 "http://www.w3.org/TR/2001/REC-SVG-20010904/DTD/svg10.dtd">
<svg version="1.0" xmlns="http://www.w3.org/2000/svg"
 width="260.000000pt" height="260.000000pt" viewBox="0 0 260.000000 260.000000"
 preserveAspectRatio="xMidYMid meet">
<metadata>
Created by potrace 1.14, written by Peter Selinger 2001-2017
</metadata>
<g transform="translate(0.000000,260.000000) scale(0.100000,-0.100000)"
fill="#000000" stroke="none">
<path d="M2466 2572 c3 -14 8 -30 11 -34 3 -5 -2 -8 -9 -6 -8 2 -27 -11 -42
-29 -22 -27 -24 -33 -12 -40 13 -7 13 -10 -4 -21 -11 -7 -20 -8 -20 -3 0 5 6
12 13 14 7 4 6 6 -5 6 -21 1 -28 -18 -16 -44 9 -19 9 -19 -6 -1 -9 10 -13 23
-10 27 3 5 1 9 -4 9 -16 0 -21 -27 -9 -40 9 -10 9 -11 0 -6 -6 3 -22 1 -35 -4
-23 -10 -23 -10 -1 -6 13 2 26 -1 30 -6 4 -7 1 -8 -6 -4 -8 5 -11 2 -9 -9 2
-10 -3 -20 -9 -22 -7 -3 -13 0 -13 7 0 6 6 8 13 4 6 -4 8 -3 4 1 -15 17 -36
14 -29 -3 5 -15 4 -15 -13 -2 -17 14 -17 14 -5 -7 8 -12 18 -19 24 -16 5 3 6
1 2 -5 -9 -15 -12 -15 -29 3 -13 13 -16 13 -21 -1 -3 -8 -2 -13 2 -11 4 3 12
-1 19 -8 10 -11 4 -12 -28 -9 -21 2 -39 0 -39 -5 0 -5 -7 -17 -16 -25 -8 -9
-10 -16 -4 -16 6 0 13 7 16 15 4 8 11 12 17 8 6 -4 7 -1 2 8 -5 8 -4 10 0 6
16 -14 14 -36 -3 -30 -11 5 -13 3 -7 -7 5 -8 4 -11 -2 -7 -6 4 -15 -5 -21 -18
-7 -14 -16 -25 -22 -25 -6 0 -9 -4 -6 -8 2 -4 0 -14 -5 -22 -7 -12 -8 -10 -6
7 2 12 11 31 20 41 15 16 15 20 4 25 -9 3 -14 -1 -13 -11 0 -9 -6 -17 -14 -17
-10 0 -14 -10 -14 -32 1 -24 -2 -30 -14 -25 -11 4 -14 1 -9 -12 4 -9 3 -15 -2
-11 -16 9 -22 -13 -11 -37 11 -22 10 -21 -8 2 -18 22 -19 25 -5 36 13 9 13 13
3 19 -9 5 -11 4 -6 -3 4 -7 1 -12 -8 -12 -10 0 -14 -9 -13 -26 1 -16 -4 -29
-13 -32 -12 -4 -13 -3 -3 10 10 12 10 18 -1 33 -12 17 -13 16 -11 -6 1 -13 -3
-27 -9 -31 -7 -5 -6 -8 3 -8 11 0 11 -3 1 -15 -11 -13 -10 -15 6 -10 10 4 6
-1 -9 -10 -15 -9 -25 -20 -22 -26 4 -5 11 -6 17 -3 7 4 8 2 4 -5 -4 -6 -11 -9
-16 -6 -4 3 -11 -1 -13 -7 -4 -10 -6 -10 -6 0 -1 7 -5 11 -11 7 -5 -3 -7 -13
-4 -23 4 -10 2 -13 -3 -7 -4 6 -21 11 -38 12 -20 2 -25 0 -16 -6 11 -7 9 -10
-8 -16 -27 -8 -23 -26 10 -42 14 -8 18 -13 9 -13 -9 0 -26 7 -38 16 -17 12
-22 12 -20 2 2 -7 -3 -12 -10 -10 -8 1 -11 -2 -7 -8 4 -7 11 -8 18 -1 8 6 16
4 24 -4 10 -11 2 -12 -40 -10 -37 2 -47 1 -34 -6 9 -6 17 -15 17 -21 0 -6 -7
-5 -17 3 -10 9 -14 9 -10 2 5 -8 -4 -18 -23 -28 -33 -17 -41 -28 -12 -18 14 6
15 4 5 -8 -7 -9 -13 -29 -15 -46 -1 -18 -7 -31 -13 -30 -5 1 -9 -3 -8 -10 1
-6 -4 -17 -12 -23 -11 -9 -15 -9 -15 -1 0 6 4 11 8 11 5 0 9 7 9 15 0 8 -4 15
-9 15 -4 0 -8 -4 -8 -10 0 -5 -5 -10 -10 -10 -7 0 -7 7 0 23 10 20 10 20 -3 5
-16 -20 -32 -25 -21 -6 4 7 3 8 -5 4 -6 -4 -9 -12 -6 -17 4 -5 0 -9 -7 -9 -10
0 -10 -2 1 -9 8 -5 21 -7 30 -4 14 4 14 3 1 -6 -12 -9 -13 -11 -1 -11 8 0 12
-3 8 -6 -3 -3 -19 1 -36 9 -28 14 -29 14 -18 -3 6 -10 14 -17 18 -14 4 2 10 0
14 -6 4 -6 11 -7 17 -4 7 4 8 2 4 -5 -6 -9 -11 -9 -21 -1 -9 7 -16 6 -26 -7
-12 -15 -12 -16 4 -10 23 9 22 0 -2 -13 -20 -10 -24 2 -8 27 4 6 3 15 -3 18
-6 4 -10 3 -9 -2 4 -22 -2 -25 -17 -7 -14 18 -15 18 -4 -4 6 -12 8 -32 4 -44
-4 -14 -3 -18 5 -14 7 5 10 2 9 -6 -2 -7 3 -12 10 -10 8 1 11 -2 7 -9 -5 -7
-15 -3 -30 11 -15 14 -28 19 -37 14 -7 -5 -22 -7 -33 -5 -30 5 -14 -7 18 -13
18 -3 25 -1 21 6 -4 7 -2 8 4 4 7 -4 17 -17 22 -29 9 -19 9 -20 -2 -7 -16 19
-40 20 -46 1 -3 -9 0 -11 8 -6 9 5 11 4 6 -4 -6 -9 -11 -9 -22 0 -12 10 -12
14 -2 20 9 6 9 9 1 9 -6 0 -14 -4 -18 -10 -3 -5 -12 -7 -19 -4 -8 3 -17 1 -20
-4 -3 -5 6 -8 19 -7 16 2 26 -3 30 -15 4 -12 12 -17 23 -14 14 5 15 4 2 -5
-11 -8 -18 -7 -25 3 -9 12 -14 12 -29 1 -10 -8 -26 -12 -36 -10 -17 3 -18 0
-11 -34 1 -2 8 3 17 10 9 7 25 14 37 16 18 3 17 1 -6 -17 -14 -11 -29 -29 -32
-40 -4 -11 -10 -18 -15 -15 -5 3 -10 -1 -12 -7 -3 -8 -9 -4 -17 10 -7 14 -8
22 -1 22 5 0 10 -4 10 -10 0 -5 7 -7 15 -4 8 4 15 11 15 16 0 6 -7 7 -16 4 -8
-3 -12 -2 -9 3 3 5 0 13 -6 17 -8 4 -9 3 -5 -4 7 -11 -6 -17 -29 -12 -5 1 -4
-4 3 -11 17 -18 15 -34 -3 -19 -8 7 -16 10 -16 6 -1 -3 -2 -12 -3 -18 -1 -7
-7 -12 -14 -11 -6 2 -9 -3 -6 -10 2 -7 -7 -23 -21 -35 -27 -23 -32 -46 -14
-58 7 -4 9 0 5 14 -4 11 -3 23 2 26 5 3 9 -10 9 -29 -1 -19 -5 -35 -9 -35 -4
0 -8 5 -8 10 0 6 -7 10 -15 10 -8 0 -15 -7 -15 -15 0 -12 -4 -13 -19 -6 -26
14 -33 3 -14 -25 14 -22 14 -24 -2 -30 -13 -5 -14 -9 -3 -15 7 -5 9 -9 3 -10
-5 0 -19 -2 -30 -4 -17 -3 -15 0 8 21 15 13 24 24 18 24 -5 0 -13 9 -16 21 -4
11 -9 18 -12 16 -2 -3 1 -15 7 -28 11 -19 10 -21 -3 -16 -12 4 -14 2 -10 -10
4 -10 2 -14 -4 -10 -7 5 -10 -2 -8 -18 1 -14 -2 -25 -6 -25 -5 0 -9 5 -9 12 0
6 -3 9 -6 5 -3 -3 -2 -13 3 -22 9 -16 11 -16 27 0 13 14 20 15 29 6 7 -7 8
-11 2 -10 -20 6 -54 -21 -49 -39 5 -16 5 -16 -6 1 -6 9 -16 17 -22 17 -6 0 -5
-7 3 -17 8 -9 9 -14 3 -10 -14 8 -37 -16 -26 -29 4 -4 0 -3 -9 4 -12 9 -19 9
-29 -1 -8 -6 -6 -2 3 10 14 16 15 23 6 29 -7 4 -10 3 -7 -2 3 -5 -3 -17 -14
-26 -10 -10 -18 -16 -18 -13 0 8 24 49 33 56 5 3 -3 14 -18 23 -14 9 -23 22
-19 28 4 6 3 8 -2 5 -6 -3 -16 8 -23 25 -10 22 -16 27 -22 17 -5 -8 -9 -10 -9
-5 0 5 -7 3 -15 -4 -12 -10 -16 -9 -21 6 -4 11 -9 23 -12 28 -3 5 0 6 5 3 6
-4 14 0 17 9 8 21 8 24 -5 24 -5 0 -8 -4 -5 -9 8 -12 -13 -8 -40 7 -12 6 -23
9 -26 7 -3 -3 -4 5 -3 18 3 30 -5 42 -17 26 -6 -10 -7 -7 -3 9 4 12 2 22 -4
22 -5 0 -12 -8 -15 -17 -4 -15 -5 -15 -4 2 1 35 -2 40 -13 25 -9 -12 -10 -12
-5 4 9 25 -22 48 -47 34 -16 -8 -17 -7 -7 11 6 12 13 21 16 21 3 0 2 -5 -2
-12 -4 -6 -3 -8 4 -4 6 3 13 2 17 -4 10 -16 25 -1 18 17 -5 12 -3 14 8 8 8 -5
11 -4 6 0 -15 17 -36 14 -29 -3 5 -15 3 -15 -11 -4 -9 8 -21 11 -26 8 -16 -10
-24 14 -10 30 11 13 10 18 -4 26 -10 5 -14 14 -11 20 4 6 3 8 -3 5 -13 -8 -46
27 -36 38 5 4 3 5 -4 2 -6 -4 -13 -2 -15 4 -2 5 -11 7 -21 4 -9 -4 -14 -12
-11 -17 4 -6 9 -6 14 2 4 7 10 8 13 4 3 -5 -7 -18 -22 -29 -16 -11 -21 -13
-14 -4 7 9 10 19 6 23 -4 3 -8 17 -10 29 -2 17 -1 19 7 7 5 -8 10 -10 10 -4 0
6 -11 21 -25 34 -14 13 -23 30 -20 38 2 7 0 10 -5 7 -6 -3 -10 -1 -10 4 0 6
-8 11 -18 11 -10 0 -23 5 -30 12 -14 14 -16 -3 -2 -20 5 -7 3 -6 -5 1 -9 8
-13 21 -9 31 6 15 8 16 24 1 12 -11 20 -13 25 -5 3 6 1 9 -6 8 -7 -2 -14 3
-15 10 -1 6 -2 15 -3 18 0 4 -8 1 -16 -6 -13 -11 -19 -8 -17 11 1 3 -5 6 -12
6 -6 0 -13 -9 -13 -19 -1 -10 3 -18 8 -18 6 0 7 5 3 12 -4 7 -3 8 5 4 16 -10
4 -25 -18 -23 -15 1 -17 5 -11 17 5 9 5 22 1 29 -6 9 -10 10 -14 2 -3 -7 -4
-7 -3 1 2 7 14 12 27 11 l24 -3 -23 10 c-12 5 -30 6 -39 3 -13 -5 -15 -2 -10
11 4 10 1 19 -8 22 -8 4 -15 11 -15 17 0 5 9 2 20 -8 11 -10 17 -22 13 -28 -3
-6 -1 -7 5 -3 15 9 6 28 -23 50 -25 19 -35 43 -12 30 6 -4 8 -3 4 1 -14 16
-33 13 -33 -5 0 -10 5 -16 10 -13 5 4 6 1 1 -7 -6 -9 -4 -11 5 -5 9 5 11 4 6
-4 -6 -9 -11 -9 -23 0 -12 10 -16 10 -24 -2 -5 -9 -9 -10 -9 -2 0 7 8 17 18
22 10 6 12 11 4 11 -7 0 -10 5 -7 10 3 6 1 10 -5 10 -6 0 -9 4 -5 9 3 5 1 12
-4 15 -5 3 -7 -8 -6 -25 3 -36 -8 -30 -13 7 -2 16 4 31 15 40 16 13 15 13 -9
3 -18 -8 -25 -17 -21 -28 4 -12 3 -13 -5 -3 -5 7 -7 25 -4 39 3 18 7 21 13 11
5 -7 9 -8 9 -3 0 6 -5 17 -10 25 -9 13 -10 13 -10 0 0 -12 -2 -12 -9 -2 -7 11
-9 10 -14 -3 -4 -9 -3 -13 3 -10 6 3 10 2 10 -3 0 -6 -7 -13 -16 -16 -8 -3
-12 -2 -9 3 3 5 1 13 -5 16 -8 5 -7 11 1 21 6 8 9 17 5 21 -3 3 -6 2 -6 -4 0
-6 -13 -10 -29 -9 -16 0 -27 4 -25 8 5 7 -11 12 -29 9 -4 -1 -3 8 3 19 6 11 8
21 5 21 -3 1 -9 2 -15 3 -5 0 -10 4 -10 9 0 4 0 10 0 14 0 3 9 -2 20 -12 11
-10 20 -13 20 -8 0 6 -7 13 -15 17 -8 3 -12 12 -9 21 6 14 -6 20 -29 16 -5 -1
-6 9 -2 21 4 16 3 19 -3 9 -8 -11 -11 -11 -16 0 -3 8 -3 4 -1 -8 3 -12 1 -24
-4 -28 -7 -4 -8 1 -4 12 6 16 5 17 -12 3 -17 -13 -18 -13 -10 0 5 8 11 23 12
33 3 15 1 16 -11 5 -8 -7 -11 -17 -8 -22 3 -5 0 -6 -7 -1 -9 5 -9 11 -2 18 16
16 -30 49 -49 34 -13 -10 -13 -10 -1 6 12 15 9 21 -12 18 -4 0 -6 2 -6 6 3 21
-3 24 -18 12 -15 -11 -15 -10 1 8 14 17 16 26 7 36 -6 8 -8 16 -6 19 3 3 -6 4
-21 2 -29 -3 -41 -11 -30 -21 4 -4 10 -2 14 4 5 8 13 9 22 3 16 -10 15 -10
-32 -14 -7 -1 -17 -5 -21 -11 -5 -6 -6 -1 -3 10 3 11 1 27 -4 35 -6 10 -10
-413 -10 -1162 l0 -1178 1300 0 1300 0 0 1301 0 1300 -69 -2 c-68 -2 -69 -2
-65 -27z m21 -4 c2 -17 0 -19 -7 -8 -5 8 -6 18 -4 22 8 12 10 10 11 -14z m-16
-53 c5 4 6 -1 3 -10 -4 -9 -13 -14 -21 -10 -10 3 -13 1 -10 -9 4 -10 0 -14
-13 -13 -17 1 -17 3 3 28 12 14 24 22 25 17 2 -4 8 -6 13 -3z m-2386 -215 c-3
-5 -12 -10 -18 -10 -7 0 -6 4 3 10 19 12 23 12 15 0z m2190 -20 c-3 -5 -12
-10 -18 -10 -7 0 -6 4 3 10 19 12 23 12 15 0z m-2115 -75 c0 -1 -6 -7 -13 -13
-10 -8 -13 -6 -13 7 0 11 6 17 13 14 7 -3 13 -6 13 -8z m2050 1 c0 -3 -4 -8
-10 -11 -5 -3 -10 -1 -10 4 0 6 5 11 10 11 6 0 10 -2 10 -4z m-1955 -66 c3 -5
1 -10 -4 -10 -6 0 -11 5 -11 10 0 6 2 10 4 10 3 0 8 -4 11 -10z m-28 -22 c-3
-8 -6 -5 -6 6 -1 11 2 17 5 13 3 -3 4 -12 1 -19z m1843 -74 c0 -8 -19 -13 -24
-6 -3 5 1 9 9 9 8 0 15 -2 15 -3z m-120 -75 c0 -5 -4 -8 -9 -4 -5 3 -12 1 -16
-5 -3 -5 -12 -10 -18 -10 -7 0 -3 7 7 15 23 18 36 19 36 4z m-92 -100 c-3 -8
-7 -3 -11 10 -4 17 -3 21 5 13 5 -5 8 -16 6 -23z m-1393 -9 c3 -5 1 -10 -4
-10 -6 0 -11 5 -11 10 0 6 2 10 4 10 3 0 8 -4 11 -10z m1364 -17 c0 -10 -3
-13 -5 -6 -3 7 -13 9 -22 6 -15 -4 -15 -3 -2 6 22 15 30 14 29 -6z m-14 -23
c4 -6 -1 -7 -11 -3 -13 5 -15 3 -9 -7 5 -9 4 -11 -4 -6 -6 4 -9 12 -6 17 8 12
22 12 30 -1z m-1143 -134 c26 -33 24 -62 -2 -31 -7 8 -9 15 -6 15 4 0 4 5 0
11 -4 8 -9 7 -16 -2 -6 -10 -7 -7 -3 10 5 16 4 21 -4 17 -6 -4 -11 -2 -11 3 0
20 15 11 42 -23z m-42 -6 c0 -5 -2 -10 -4 -10 -3 0 -8 5 -11 10 -3 6 -1 10 4
10 6 0 11 -4 11 -10z m60 -60 c0 -5 -5 -10 -11 -10 -5 0 -7 5 -4 10 3 6 8 10
11 10 2 0 4 -4 4 -10z m125 -89 c-3 -2 -15 7 -27 22 -20 24 -22 25 -35 9 -12
-16 -13 -16 -6 2 5 15 3 17 -8 11 -12 -8 -12 -6 0 9 13 16 16 15 47 -15 19
-18 31 -35 29 -38z m-54 -4 c-10 -9 -11 -8 -5 6 3 10 9 15 12 12 3 -3 0 -11
-7 -18z m21 -29 c-6 -6 -7 0 -4 19 5 21 7 23 10 9 2 -10 0 -22 -6 -28z m754
-16 c-17 -16 -18 -16 -5 5 7 12 15 20 18 17 3 -2 -3 -12 -13 -22z m-81 -61 c4
-11 3 -11 -9 -2 -10 8 -16 9 -21 1 -3 -5 0 -10 7 -11 9 0 10 -2 1 -5 -7 -3
-10 -13 -7 -22 5 -15 4 -15 -6 1 -6 9 -16 17 -22 17 -7 0 -7 -4 1 -14 9 -10 7
-16 -6 -27 -10 -7 -15 -9 -11 -5 4 5 3 15 -3 22 -7 9 -4 17 13 28 12 9 19 16
14 16 -5 0 -3 6 3 13 6 8 7 17 3 22 -4 4 3 2 15 -6 13 -7 25 -20 28 -28z
m-586 6 c0 -8 -2 -8 -6 1 -4 10 -8 10 -21 0 -15 -12 -16 -11 -3 4 14 19 32 15
30 -5z m117 -129 c3 -4 -1 -5 -10 -4 -8 1 -18 5 -22 8 -3 4 1 5 10 4 8 -1 18
-5 22 -8z m324 -13 c13 -14 21 -25 18 -25 -2 0 -15 11 -28 25 -13 14 -21 25
-18 25 2 0 15 -11 28 -25z m-238 -57 c-10 -10 -15 -10 -22 2 -6 9 -5 17 3 22
18 11 33 -10 19 -24z m46 -67 c-7 -9 -13 -17 -14 -19 -1 -2 -4 4 -8 13 -3 9
-2 13 4 10 6 -3 10 1 10 10 0 13 -4 14 -20 5 -14 -7 -20 -7 -20 0 0 5 7 10 16
10 8 0 13 4 9 10 -3 5 -13 7 -23 4 -14 -5 -15 -4 -2 5 23 16 64 -26 48 -48z
m94 -38 c-6 -2 -9 -10 -6 -15 4 -7 2 -8 -4 -4 -18 11 -14 26 6 25 10 0 12 -3
4 -6z m-47 -23 c3 -5 1 -10 -4 -10 -6 0 -11 5 -11 10 0 6 2 10 4 10 3 0 8 -4
11 -10z"/>
<path d="M25 2359 c-4 -6 -5 -12 -2 -15 2 -3 7 2 10 11 7 17 1 20 -8 4z"/>
<path d="M107 2313 c3 -7 8 -13 12 -13 4 0 8 6 8 13 0 8 -6 14 -13 14 -7 0
-10 -6 -7 -14z"/>
<path d="M123 2264 c15 -13 33 -24 38 -24 16 0 -30 44 -49 46 -12 2 -9 -4 11
-22z"/>
<path d="M2107 2193 c5 -12 3 -14 -7 -8 -8 5 -11 4 -6 -3 4 -6 13 -9 22 -5 11
4 12 9 3 19 -15 19 -20 18 -12 -3z"/>
<path d="M291 2088 c-11 -18 -11 -22 5 -32 11 -5 24 -11 31 -12 16 -3 5 23
-13 30 -7 3 -11 12 -8 21 9 22 1 19 -15 -7z m20 -25 c13 -16 12 -17 -3 -4 -10
7 -18 15 -18 17 0 8 8 3 21 -13z"/>
<path d="M1975 2071 c-3 -5 -1 -12 5 -16 12 -7 4 -25 -11 -25 -6 0 -7 5 -4 10
3 6 1 10 -5 10 -7 0 -9 -8 -4 -22 6 -20 5 -21 -10 -9 -9 7 -16 9 -16 3 0 -17
28 -22 40 -7 7 8 17 12 24 8 6 -3 8 -3 4 2 -4 4 -3 14 4 22 9 11 8 13 -3 11
-8 -2 -13 3 -11 10 2 14 -4 16 -13 3z"/>
<path d="M1728 1791 c8 -5 13 -11 13 -15 -1 -3 2 -6 6 -6 18 -1 8 26 -11 28
-14 1 -17 -1 -8 -7z"/>
<path d="M1565 1640 c-3 -5 -1 -10 4 -10 6 0 11 5 11 10 0 6 -2 10 -4 10 -3 0
-8 -4 -11 -10z"/>
<path d="M790 1596 c7 -7 13 -7 20 0 6 6 3 10 -10 10 -13 0 -16 -4 -10 -10z"/>
<path d="M830 1515 c-11 -13 -10 -14 4 -9 9 3 16 10 16 15 0 13 -6 11 -20 -6z"/>
<path d="M1499 1503 c-13 -16 -12 -17 4 -4 9 7 17 15 17 17 0 8 -8 3 -21 -13z"/>
<path d="M897 1464 c-9 -9 12 -46 22 -40 9 6 35 -40 40 -72 0 -4 9 -12 19 -18
14 -9 22 -8 37 4 15 11 16 13 4 9 -18 -6 -62 36 -81 78 -6 14 -18 25 -25 25
-8 0 -11 5 -8 10 7 11 2 13 -8 4z m88 -114 c10 -11 16 -20 13 -20 -3 0 -13 9
-23 20 -10 11 -16 20 -13 20 3 0 13 -9 23 -20z"/>
<path d="M940 1446 c0 -2 8 -10 18 -17 15 -13 16 -12 3 4 -13 16 -21 21 -21
13z"/>
<path d="M990 1379 c0 -5 5 -7 10 -4 6 3 10 8 10 11 0 2 -4 4 -10 4 -5 0 -10
-5 -10 -11z"/>
<path d="M1308 1343 c7 -3 16 -2 19 1 4 3 -2 6 -13 5 -11 0 -14 -3 -6 -6z"/>
<path d="M1031 1297 c-6 -6 -11 -18 -11 -26 0 -11 6 -9 23 7 16 15 27 19 35
12 9 -7 9 -7 2 2 -13 16 -36 18 -49 5z"/>
<path d="M1090 1266 c0 -2 7 -7 16 -10 8 -3 12 -2 9 4 -6 10 -25 14 -25 6z"/>
<path d="M1150 1202 c0 -7 4 -12 10 -12 5 0 8 -14 6 -30 -3 -25 -1 -28 11 -19
10 9 11 14 3 19 -8 5 -6 9 5 14 9 3 22 3 27 -1 7 -3 8 -1 4 6 -4 7 -13 10 -19
8 -7 -2 -20 2 -29 11 -12 10 -18 11 -18 4z"/>
</g>
</svg>
